<?xml version="1.0" encoding="utf-8"?>
<!-- Generator: Adobe Illustrator 16.0.0, SVG Export Plug-In . SVG Version: 6.00 Build 0)  -->
<!DOCTYPE svg PUBLIC "-//W3C//DTD SVG 1.1//EN" "http://www.w3.org/Graphics/SVG/1.1/DTD/svg11.dtd">
<svg version="1.1" id="Layer_1" xmlns="http://www.w3.org/2000/svg" xmlns:xlink="http://www.w3.org/1999/xlink" x="0px" y="0px"
	 width="90px" height="36px" viewBox="0 0 90 36" enable-background="new 0 0 90 36" xml:space="preserve">
<g id="Your_Icon">
	<path fill="#C4C4C4" d="M82.273,19.27c0.037-0.036,0.07-0.072,0.1-0.108c0.017-0.02,0.032-0.04,0.048-0.061
		c0.009-0.011,0.015-0.02,0.022-0.03c0.223-0.299,0.355-0.668,0.356-1.07c-0.001-0.401-0.134-0.771-0.354-1.069
		c-0.01-0.014-0.02-0.028-0.031-0.041c-0.013-0.016-0.025-0.033-0.039-0.049c-0.031-0.038-0.064-0.076-0.103-0.114L74.274,8.73
		c-0.702-0.703-1.842-0.703-2.545,0c-0.704,0.703-0.704,1.842,0,2.545l4.923,4.924l-13.655,0c-0.995,0-1.8,0.806-1.8,1.8
		s0.805,1.799,1.8,1.8L76.652,19.8l-4.923,4.924c-0.704,0.703-0.704,1.843,0,2.547c0.703,0.702,1.843,0.702,2.545,0l7.997-7.996
		C82.271,19.273,82.273,19.271,82.273,19.27z"/>
	<path fill="#C4C4C4" d="M53.996,18c0,9.942,8.061,18.001,18.002,18.001C81.94,36.002,90,27.942,90,18
		c0-9.942-8.06-18.002-18.002-18.002C62.057-0.002,53.996,8.058,53.996,18z M86.4,18c0,7.953-6.449,14.402-14.402,14.402
		S57.596,25.953,57.596,18c0-7.954,6.449-14.402,14.402-14.402C79.951,3.598,86.4,10.047,86.4,18z"/>
</g>
<g id="Your_Icon_1_">
	<path fill="#C4C4C4" d="M7.727,16.73c-0.037,0.036-0.07,0.072-0.1,0.108c-0.017,0.02-0.032,0.04-0.048,0.061
		c-0.009,0.011-0.015,0.02-0.022,0.03C7.334,17.229,7.201,17.598,7.2,18c0.001,0.401,0.134,0.771,0.354,1.069
		c0.01,0.014,0.02,0.027,0.031,0.04c0.013,0.016,0.025,0.033,0.039,0.05c0.031,0.038,0.064,0.076,0.103,0.114l7.998,7.996
		c0.702,0.702,1.842,0.702,2.545,0c0.704-0.703,0.704-1.843,0-2.546L13.348,19.8l13.655-0.001c0.995,0.001,1.8-0.806,1.8-1.799
		s-0.805-1.799-1.8-1.8L13.348,16.2l4.923-4.924c0.704-0.703,0.704-1.843,0-2.547c-0.703-0.702-1.843-0.702-2.545,0l-7.997,7.996
		C7.729,16.727,7.727,16.729,7.727,16.73z"/>
	<path fill="#C4C4C4" d="M36.004,18c0-9.942-8.061-18.001-18.002-18.001C8.06-0.002,0,8.058,0,18c0,9.941,8.06,18.002,18.002,18.002
		C27.943,36.002,36.004,27.941,36.004,18z M3.6,18c0-7.953,6.449-14.402,14.402-14.402S32.404,10.047,32.404,18
		c0,7.954-6.449,14.402-14.402,14.402S3.6,25.953,3.6,18z"/>
</g>
</svg>
