<?xml version="1.0" encoding="utf-8"?>
<!-- Generator: Adobe Illustrator 16.0.0, SVG Export Plug-In . SVG Version: 6.00 Build 0)  -->
<!DOCTYPE svg PUBLIC "-//W3C//DTD SVG 1.1//EN" "http://www.w3.org/Graphics/SVG/1.1/DTD/svg11.dtd">
<svg version="1.1" id="Layer_1" xmlns="http://www.w3.org/2000/svg" xmlns:xlink="http://www.w3.org/1999/xlink" x="0px" y="0px"
	 width="20px" height="20px" viewBox="0 0 20 20" enable-background="new 0 0 20 20" xml:space="preserve">
<g id="Layer_2">
	<g>
		<path fill="#E81551" d="M9.992,0C3.331,0,0,3.333,0,10c0,6.666,3.331,10,9.992,10C16.665,20,20,16.666,20,10
			C20,3.333,16.665,0,9.992,0z M15.831,16.087c-1.225,1.286-3.17,1.927-5.839,1.927c-2.647,0-4.585-0.641-5.814-1.927
			C2.949,14.8,2.335,12.771,2.335,10c0-2.771,0.614-4.801,1.843-6.087c1.229-1.286,3.167-1.928,5.814-1.928
			c2.669,0,4.614,0.642,5.839,1.928C17.054,5.2,17.665,7.229,17.665,10C17.665,12.771,17.054,14.798,15.831,16.087z"/>
		<path fill="#E81551" d="M13.006,5.201l-2.933,2.964L8.276,6.349c-0.471-0.477-1.235-0.477-1.707,0c-0.47,0.476-0.47,1.249,0,1.725
			l2.631,2.658c0.24,0.242,0.556,0.362,0.872,0.356c0.314,0.006,0.63-0.114,0.872-0.356l3.766-3.808
			c0.472-0.476,0.472-1.249,0-1.724C14.24,4.725,13.476,4.725,13.006,5.201z"/>
		<path fill="#E81551" d="M15.544,9.975V10c0,0.049-0.001,0.097-0.002,0.145c-0.01,0.408,0.31,0.746,0.713,0.756
			c0.006,0,0.012,0,0.018,0c0.396,0,0.721-0.319,0.73-0.72c0.001-0.061,0.002-0.121,0.002-0.181V9.975
			c0-0.408-0.327-0.739-0.73-0.739C15.87,9.236,15.544,9.567,15.544,9.975z"/>
		<path fill="#E81551" d="M3.745,9.111c-0.4-0.008-0.738,0.314-0.748,0.721C2.996,9.889,2.995,9.944,2.995,10v0.013
			c0,0.408,0.328,0.732,0.731,0.732c0.404,0,0.73-0.337,0.73-0.745c0-0.044,0.001-0.088,0.002-0.133
			C4.467,9.459,4.148,9.121,3.745,9.111z"/>
		<path fill="#E81551" d="M9.981,4.398H10c0.042,0,0.084,0.001,0.125,0.001C10.131,4.4,10.138,4.4,10.144,4.4
			c0.395,0,0.721-0.319,0.729-0.722c0.009-0.407-0.311-0.746-0.714-0.755C10.106,2.921,10.053,2.92,10,2.92H9.981
			C9.578,2.92,9.25,3.252,9.25,3.66C9.25,4.068,9.578,4.398,9.981,4.398z"/>
		<path fill="#E81551" d="M10,15.603c-0.046,0-0.092-0.002-0.138-0.002c-0.399-0.012-0.738,0.313-0.748,0.721
			c-0.01,0.408,0.311,0.746,0.714,0.756c0.057,0.002,0.115,0.002,0.172,0.002h0.006c0.405,0,0.729-0.33,0.729-0.738
			S10.405,15.603,10,15.603z"/>
	</g>
</g>
</svg>
